DataType=double
version=3
OpenSimVersion=4.5
endheader
time	ground_force_r_vx	ground_force_r_vy	ground_force_r_vz	ground_force_r_px	ground_force_r_py	ground_force_r_pz	ground_force_l_vx	ground_force_l_vy	ground_force_l_vz	ground_force_l_px	ground_force_l_py	ground_force_l_pz
0	-59.15431375410115	58.64834209330249	0	0.1740622156614476	0	0.08956897507911464	122.709320093539	473.8996267848959	0	-0.3066141042537798	0	-0.09478689634274365
0.01033452846958524	-28.24603022321645	273.5140458337125	0	0.1765297681793386	0	0.08956897507975892	117.2524839844025	394.2928686697124	0	-0.3066916628616425	0	-0.09478689634274366
0.02066905693917047	-84.47910723467537	575.3489784513777	0	0.1772446364974301	0	0.0895689751148068	102.0525808802244	304.1107141965282	0	-0.3068768173573824	0	-0.09478689634274365
0.03100358540875571	-137.4064885391678	785.9909632560598	0	0.1780128301738531	0	0.08956897672544406	20.22205738879047	97.65605912846993	0	-0.3086104055179839	0	-0.09478689634274365
0.04133811387834094	-160.3283854943968	891.9270674184969	0	0.1788989465144119	0	0.08956902015073345	2.443339309943247e-06	-2.449854627041226e-06	0	0	0	0
0.05167264234792618	-156.2897401098681	899.9040346907493	0	0.1798540594960658	0	0.08956959002602316	3.889152797335508e-11	-3.129321480272298e-11	0	0	0	0
0.06200717081751142	-137.7070326338686	841.8200883420675	0	0.1808852137503091	0	0.08957321843860049	3.017306616548059e-10	-2.123726798325384e-10	0	0	0	0
0.07234169928709665	-115.0669289154677	764.9017616003872	0	0.1821260699359398	0	0.08958501721137652	1.945653416203511e-07	-1.227877307873178e-07	0	0	0	0
0.08267622775668189	-93.19249713047239	689.9051417867049	0	0.1836456297375224	0	0.08960798053345236	0.000620856921529011	-0.0003590728263708714	0	0	0	0
0.09301075622626712	-74.22123880451544	625.7922849989052	0	0.1853560321792209	0	0.0896393819543056	-0.04873865595663354	0.02626946356925591	0	0	0	0
0.1033452846958524	-58.65190258796183	574.4253767494281	0	0.1871376369119085	0	0.08967531220646831	-0.04985447019248674	0.02539108682809835	0	0	0	0
0.1136798131654376	-46.4002215395845	535.7256495351079	0	0.188993019143632	0	0.08971606381680776	-0.04098125468630363	0.01996876331487825	0	0	0	0
0.1240143416350228	-37.38618726208129	509.0401172195167	0	0.1911647860604923	0	0.08977039522991713	-0.04218432427567656	0.01989225037965978	0	0	0	0
0.1343488701046081	-31.29237508403715	493.8441601841806	0	0.1940401093558159	0	0.08985193469463347	-0.05444270855247715	0.02502495858747632	0	0	0	0
0.1446833985741933	-27.74132550205493	488.8759235369412	0	0.1978635458352502	0	0.08996918225687443	-0.08025976086870319	0.03616022619875945	0	0	0	0
0.1550179270437785	-25.92499209666621	492.1663132424092	0	0.2025351875142232	0	0.0901182252720404	-0.1231050082882233	0.05459209848876658	0	0	0	0
0.1653524555133638	-25.03169220041071	501.1440342717357	0	0.2077516137509756	0	0.09028799145189841	-0.1834676706515451	0.08035501562219895	0	0	0	0
0.175686983982949	-24.40076134339603	513.2724129537138	0	0.2131924280403116	0	0.09046689670179293	-0.2544957201992621	0.1103242961174718	0	0	0	0
0.1860215124525342	-23.5368412118745	526.2000813930069	0	0.2186380224008066	0	0.09064699394269718	-0.3230857938796076	0.1387788833600767	0	0	0	0
0.1963560409221195	-22.35529083659245	537.8406523116001	0	0.2239880272338914	0	0.09082468257701777	-0.3793471564013771	0.1614362824336548	0	0	0	0
0.2066905693917047	-21.0133215697439	546.4290093092277	0	0.2292076236755736	0	0.09099869884977893	-0.428478243120721	0.1804227507193589	0	0	0	0
0.21702509786129	-19.01685063752251	550.8543203257206	0	0.2342896019387398	0	0.09116850735717105	-0.4853235493914279	0.2019358341893485	0	0	0	0
0.2273596263308752	-15.9468402473527	551.0399807891897	0	0.2392916032867432	0	0.09133599373952161	-0.5611611962661232	0.2306348674530676	0	0	0	0
0.2376941548004604	-12.86815006791984	547.980878887025	0	0.2443083090853669	0	0.09150484511563521	-0.6641226289831063	0.2697042160827847	0	0	0	0
0.2480286832700457	-9.936605119076063	542.6584734040107	0	0.2493238251231497	0	0.09167444058801592	-0.7978796410602135	0.320443358692213	0	0	0	0
0.2583632117396309	-6.780666604719064	535.5943454266362	0	0.2543357302608623	0	0.09184454294175792	-0.9653149749699806	0.3836612666837595	0	0	0	0
0.2686977402092162	-2.172880797208665	527.0622259352656	0	0.2593853798439203	0	0.0920162833016389	-1.176716720440367	0.4628940834320335	0	0	0	0
0.2790322686788014	3.474025822035371	518.9993892545834	0	0.2645889418329996	0	0.09219412008838782	-1.418532451098049	0.552824804664781	0	0	0	0
0.2893667971483866	8.961843361328002	513.8251572493974	0	0.2699855823148142	0	0.09237995279895865	-1.619841627261603	0.6269410780989751	0	0	0	0
0.2997013256179718	13.93892391868318	512.8609444525709	0	0.2755133212655911	0	0.09257166687343618	-1.663981345900746	0.6418591977752588	0	0	0	0
0.3100358540875571	17.84097371183606	516.3896782982099	0	0.2811351696728276	0	0.0927680710485536	-1.470456326598137	0.5671566976617585	0	0	0	0
0.3203703825571423	21.18763615108607	523.1609343267006	0	0.2868133008502121	0	0.09296745572468397	-1.081837311388313	0.4180772486528186	0	0	0	0
0.3307049110267276	24.33740616278451	532.4289380922818	0	0.2925637861920041	0	0.09317021162590106	-0.6387333705165089	0.2476893756535543	0	0	0	0
0.3410394394963128	27.76893285842218	543.6236740809759	0	0.2984120713273655	0	0.09337702356209482	-0.2850372613551486	0.1110924567129517	0	0	0	0
0.351373967965898	31.14940973851976	556.758429625876	0	0.3043901546388857	0	0.09358920777580483	-0.09026018925522129	0.03544160304452488	0	0	0	0
0.3617084964354833	33.94440270853348	571.7370871104624	0	0.3105103983174043	0	0.09380739385530028	-0.02469740673120563	0.009805389655356787	0	0	0	0
0.3720430249050685	35.94562708909081	588.8760397240162	0	0.3167530367443505	0	0.09403095847907396	-0.03487087858799223	0.01402505979072748	0	0	0	0
0.3823775533746537	37.14181839642607	608.9700398745947	0	0.3229489505612614	0	0.09425388542919119	-0.1118279058191514	0.04562101648259143	0	0	0	0
0.392712081844239	38.21547612467214	628.1930036368284	0	0.3285752270819109	0	0.09445704612469691	-0.2750981110134412	0.1141620113845167	0	0	0	0
0.4030466103138242	40.80673178137511	645.4794873342034	0	0.3329669445248798	0	0.09461575674337673	-0.5179315384789469	0.219212675684229	0	0	0	0
0.4133811387834094	45.35783079125024	663.4139870283619	0	0.3355648074522559	0	0.09470939080749873	-0.79058718296894	0.3420703166547741	0	0	0	0
0.4237156672529946	52.02762003498207	679.4897663844695	0	0.3368296215431448	0	0.09475414110431746	-1.032035272204535	0.4575514349102247	0	0	0	0
0.4340501957225799	60.54729994167477	689.5826498190764	0	0.3375340595066741	0	0.09477805858562863	-1.213835823773037	0.5525505587484155	0	0	0	0
0.4443847241921652	70.34348466601587	693.1712312435208	0	0.3378149891205146	0	0.09478630750503102	-1.343030736262767	0.6308398600628957	0	0	0	0
0.4547192526617503	80.81874077440428	689.5941616003802	0	0.3378855578447172	0	0.09478690504885454	-1.45183908621794	0.7123624882455696	0	0	0	0
0.4650537811313356	91.55477683497055	678.2965204733058	0	0.3379302030614942	0	0.0947868963560216	-1.643435673091568	0.8557658361766066	0	0	0	0
0.4753883096009208	101.6633349117378	655.4378807674872	0	0.3379625693054689	0	0.09478689634274931	-2.124945101962454	1.192610496519583	0	0	0	0
0.4857228380705061	109.2341945068388	624.6475279283219	0	0.3379450971387717	0	0.09478689634274365	-3.385044108225776	2.078414004714376	0	0	0	0
0.4960573665400914	116.0882023583701	585.2177635629336	0	0.3379242774512886	0	0.09478689634274365	-6.88602732058341	4.698157198866507	0	0	0	0
0.5063918950096765	122.0590208184353	533.8510232995328	0	0.3379190583456436	0	0.09478689634274365	-16.9813343636336	13.18223637252929	0	0	0	0
0.5167264234792618	122.9724774914906	468.4883011993742	0	0.3378736502131661	0	0.09478689634274365	-40.9831924839368	37.54374658782001	0	0.8205101708427734	0	-0.08956897507910591
0.5270609519488471	116.9852444106694	389.7123808146957	0	0.3377757913780682	0	0.09478689634274365	-49.68800861754166	171.8575808646993	0	0.8234832341791859	0	-0.08956897507938606
0.5373954804184323	101.9091276611362	301.8080574396647	0	0.3375728264829606	0	0.09478689634274365	-71.92906565226647	490.5620718195545	0	0.8245768797615415	0	-0.0895689750910645
0.5477300088880175	20.87712765622676	98.82548333805094	0	0.3358504115081428	0	0.09478689634274365	-127.9402535689773	761.5677918084062	0	0.8253131631571876	0	-0.08956897569885927
0.5580645373576028	5.923436141695669e-06	-5.98037037165157e-06	0	0	0	0	-161.3669284001914	922.5747286255958	0	0.8261640785217778	0	-0.08956899669893804
0.568399065827188	6.284248160155156e-11	-5.080999384873005e-11	0	0	0	0	-162.4303273354491	949.4999169011442	0	0.8270786264673716	0	-0.08956936049527207
0.5787335942967732	4.026620652286399e-10	-2.84084079460617e-10	0	0	0	0	-146.0128221782356	890.1210478660339	0	0.8280658153455969	0	-0.08957222085543148
0.5890681227663584	2.206498477536669e-07	-1.390648196896688e-07	0	0	0	0	-122.817127501242	803.3806537112348	0	0.8292692870287814	0	-0.08958294498742128
0.5994026512359436	0.000752882323566833	-0.0004338884943013675	0	0	0	0	-99.64007739735126	719.1298330030147	0	0.8307692387897542	0	-0.08960504278929386
